<svg width="1538" height="1514" viewBox="0 0 1538 1514" fill="none" xmlns="http://www.w3.org/2000/svg">
<path d="M959.679 1.52608C965.71 -1.71431 972.526 2.90422 977.916 7.12561C978.785 7.80622 979.651 8.49287 980.52 9.17793C981.902 10.2531 983.285 11.3273 984.668 12.4006C986.964 14.1837 989.259 15.9685 991.55 17.7585C996.521 21.6408 1001.53 25.4682 1006.58 29.2404C1011.98 33.2706 1017.36 37.33 1022.71 41.4279C1023.75 42.2277 1023.75 42.2277 1024.82 43.0436C1027.88 45.3905 1030.95 47.738 1034.01 50.0856C1045.75 59.0772 1057.58 67.9432 1069.5 76.6926C1077.83 82.8163 1086.04 89.0946 1094.24 95.3813C1098.32 98.5024 1102.41 101.605 1106.52 104.678C1115.39 111.307 1124.17 118.047 1132.93 124.811C1142.7 132.348 1152.57 139.744 1162.46 147.115C1170.4 153.043 1178.26 159.067 1186.08 165.166C1192.17 169.917 1198.32 174.567 1204.52 179.178C1206.37 180.573 1208.23 181.969 1210.08 183.365C1216.25 187.993 1222.46 192.564 1228.67 197.13C1233.1 200.391 1237.52 203.674 1241.9 207.007C1242.6 207.545 1243 207.849 1243.39 208.098C1244.31 208.683 1245.46 207.878 1245.41 206.791C1245.21 198.428 1246.36 191.227 1248.52 183.178C1248.8 181.993 1249.08 180.809 1249.36 179.588C1257.99 144.137 1282.22 112.23 1312.81 92.717C1328.06 83.4842 1344.19 77.2402 1361.52 73.1779C1362.7 72.8943 1362.7 72.8943 1363.91 72.6049C1371.72 70.9481 1379.48 70.8393 1387.42 70.8623C1389.69 70.8654 1391.95 70.8419 1394.21 70.8166C1407.59 70.7574 1420.27 72.7245 1433.02 76.9279C1433.81 77.184 1434.6 77.44 1435.41 77.7038C1473.31 90.3223 1503.05 115.822 1521.3 151.283C1534.68 178.295 1537.14 205.504 1537.03 235.178C1537.02 239.49 1537.03 243.801 1537.04 248.112C1537.05 255.649 1537.05 263.185 1537.04 270.722C1537.02 281.93 1537.03 293.139 1537.04 304.347C1537.05 324.377 1537.05 344.406 1537.03 364.435C1537.02 381.974 1537.01 399.514 1537.02 417.054C1537.02 418.219 1537.02 419.385 1537.02 420.586C1537.02 425.318 1537.02 430.05 1537.02 434.782C1537.03 479.15 1537.01 523.519 1536.98 567.888C1536.96 607.232 1536.96 646.575 1536.97 685.919C1536.97 695.985 1536.97 706.052 1536.97 716.118C1536.97 717.358 1536.97 718.598 1536.97 719.875C1536.98 752.819 1536.98 785.763 1536.96 818.707C1536.96 822.257 1536.96 825.807 1536.96 829.357C1536.96 831.712 1536.96 834.067 1536.96 836.421C1536.95 853.929 1536.95 871.437 1536.96 888.945C1536.96 908.886 1536.96 928.826 1536.94 948.767C1536.93 959.899 1536.92 971.03 1536.93 982.162C1536.94 989.632 1536.93 997.103 1536.92 1004.57C1536.91 1008.81 1536.91 1013.04 1536.92 1017.27C1536.99 1048.23 1535.31 1079.18 1531.08 1109.87C1530.86 1111.5 1530.65 1113.14 1530.43 1114.77C1528.86 1126.33 1527.02 1137.78 1524.52 1149.18C1524.27 1150.35 1524.02 1151.52 1523.76 1152.72C1520.33 1168.73 1516.74 1184.64 1511.52 1200.18C1510.96 1201.85 1510.96 1201.85 1510.4 1203.55C1493.51 1253.74 1469.92 1299.52 1435.97 1340.42C1433.88 1342.95 1431.83 1345.5 1429.77 1348.05C1423.05 1356.22 1415.91 1363.87 1408.46 1371.37C1407.8 1372.03 1407.14 1372.7 1406.46 1373.38C1402.54 1377.28 1398.52 1380.99 1394.34 1384.59C1391.95 1386.67 1389.65 1388.83 1387.33 1390.99C1381.94 1395.9 1376.29 1400.39 1370.44 1404.74C1369.08 1405.76 1367.72 1406.78 1366.36 1407.8C1348.84 1421.01 1330.74 1432.59 1311.52 1443.18C1310.63 1443.67 1309.74 1444.16 1308.83 1444.67C1241.76 1481.43 1164.86 1501.94 1088.98 1509.27C1088.21 1509.34 1087.44 1509.42 1086.65 1509.49C1085.05 1509.65 1083.45 1509.8 1081.86 1509.95C1080.36 1510.1 1078.85 1510.24 1077.35 1510.39C1051.11 1512.95 1025.07 1513.62 998.705 1513.5C994.766 1513.49 990.827 1513.49 986.887 1513.5C966.341 1513.52 945.976 1513.3 925.52 1511.18C923.681 1511 921.841 1510.82 920.002 1510.64C914.711 1510.12 909.427 1509.53 904.145 1508.93C903.213 1508.82 902.281 1508.71 901.321 1508.6C862.654 1504.13 823.782 1497.51 786.748 1485.24C784.32 1484.44 781.89 1483.65 779.455 1482.87C760.448 1476.76 741.766 1470.33 723.52 1462.18C722.069 1461.54 722.069 1461.54 720.589 1460.89C678.727 1442.41 639.714 1419.47 604.52 1390.18C603.514 1389.35 602.509 1388.52 601.473 1387.66C583.434 1372.67 565.018 1356.34 550.594 1337.81C548.602 1335.28 546.523 1332.87 544.398 1330.46C509.473 1290.62 484.306 1242.92 467.082 1193.05C466.705 1191.97 466.705 1191.97 466.319 1190.86C452.064 1149.56 448.167 1106.41 467.337 1066.08C483.954 1032.18 512.254 1004.68 548.082 991.865C585.107 979.256 626.67 980.685 662.051 997.795C674.847 1004.21 685.79 1011.42 696.317 1021.17C698.604 1023.31 698.604 1023.31 701.582 1025.55C724.125 1045.7 737.302 1076.81 744.395 1105.62C751.865 1134.48 769.225 1160.73 789.52 1182.18C790.35 1183.07 803.645 1253.58 804.5 1254.5C820.977 1271.7 817.52 1173.27 817.52 1149.45C817.52 1094 817.52 1038.39 817.52 982.179C817.52 926.951 772.749 882.178 717.52 882.178C610.338 882.178 502.769 882.178 393.569 882.178C338.321 882.178 293.541 927.034 293.569 982.281C293.606 1055.34 293.626 1086.74 293.7 1206.07C293.709 1237.36 293.709 1237.36 293.711 1252.01C293.713 1262.92 293.721 1273.84 293.733 1284.76C293.745 1295.9 293.749 1307.04 293.747 1318.18C293.745 1324.23 293.747 1330.27 293.758 1336.32C293.768 1341.78 293.768 1347.25 293.762 1352.72C293.761 1354.7 293.763 1356.67 293.77 1358.64C293.802 1369.38 293.379 1379.58 291.52 1390.18C291.217 1392.23 290.917 1394.29 290.621 1396.35C289.612 1402.26 287.912 1407.79 285.895 1413.43C285.541 1414.42 285.188 1415.42 284.824 1416.45C271.727 1452.48 245.943 1481.89 211.457 1498.97C175.697 1515.57 134.848 1518.51 97.5198 1505.18C60.7199 1490.88 30.0371 1464.4 13.5198 1428.18C8.72015 1416.9 4.86089 1405.22 2.51976 1393.18C2.26783 1391.92 2.2678 1391.92 2.01079 1390.63C0.212861 1380.5 0.238722 1370.53 0.262496 1360.28C0.259799 1358.26 0.256234 1356.25 0.251875 1354.24C0.242439 1348.7 0.245391 1343.17 0.250411 1337.64C0.253681 1331.62 0.24543 1325.61 0.238631 1319.59C0.228328 1309.04 0.225397 1298.49 0.227522 1287.94C0.229773 1276.63 0.2277 1265.31 0.220381 1254C0.219692 1252.93 0.21968 1252.93 0.218977 1251.83C0.217094 1248.92 0.215188 1246.01 0.21324 1243.09C0.192963 1212.71 0.186825 1182.33 0.185652 1151.96C0.185523 1148.69 0.185366 1145.42 0.185225 1142.15C0.185191 1141.34 0.185199 1140.53 0.185164 1139.69C0.184347 1121.7 0.17992 1103.72 0.17491 1085.73C0.172853 1078.32 0.170924 1070.92 0.168929 1063.51C0.168707 1062.69 0.168485 1061.87 0.168257 1061.03C0.155611 1014.12 0.147322 967.214 0.148238 920.308C0.148269 918.553 0.148328 916.798 0.14836 915.043C0.148507 907.119 0.148663 899.195 0.148848 891.271C0.14893 887.738 0.149012 884.205 0.149092 880.672C0.149133 878.903 0.149171 877.135 0.149214 875.366C0.150574 819.458 0.135949 763.549 0.108138 707.64C0.101135 693.556 0.0942173 679.472 0.0876298 665.387C0.0872241 664.52 0.0868272 663.653 0.0864091 662.759C0.0739746 636.019 0.0664116 609.279 0.0638871 582.539C0.0638072 581.699 0.0637253 580.859 0.063643 579.994C0.0619363 561.555 0.0614254 543.116 0.061995 524.678C0.062188 518.08 0.0623008 511.482 0.0623613 504.884C0.0623771 503.242 0.0623973 501.601 0.0624223 499.959C0.0627746 473.831 0.0513802 447.703 0.034102 421.575C0.0167818 395.25 0.0124304 368.924 0.0256181 342.599C0.0274425 338.956 0.02914 335.313 0.030745 331.67C0.0310652 330.956 0.0313917 330.241 0.0317216 329.506C0.0364155 318.229 0.0277427 306.952 0.0134111 295.675C-0.000421413 284.569 0.000504899 273.463 0.0157914 262.356C0.0235504 256.422 0.0251353 250.489 0.00889446 244.555C-0.00578537 239.144 -0.00168402 233.734 0.016707 228.323C0.0201157 226.39 0.0169877 224.457 0.00608684 222.524C-0.135186 195.649 5.49179 170.713 18.5198 147.178C19.0597 146.201 19.0597 146.201 19.6106 145.204C24.4898 136.494 29.9106 128.697 36.5198 121.178C37.2391 120.326 37.9584 119.474 38.6994 118.596C44.0916 112.35 49.9996 107.215 56.5198 102.178C57.4453 101.437 58.3709 100.696 59.3244 99.9318C84.7659 80.0406 114.975 70.7635 147.02 70.6779C147.778 70.6733 148.536 70.6686 149.317 70.6638C186.996 70.5739 221.488 86.6481 248.52 112.178C249.329 112.923 250.139 113.668 250.973 114.436C276.023 138.304 292.801 175.92 293.857 210.475C293.913 214.17 293.902 217.864 293.881 221.56C293.882 223.237 293.884 224.914 293.888 226.591C293.895 231.157 293.883 235.723 293.868 240.289C293.855 245.304 293.859 250.319 293.861 255.335C293.863 265.05 293.849 274.766 293.83 284.481C293.808 295.73 293.806 306.979 293.804 318.228C293.788 347.899 293.746 377.569 293.707 407.24C293.676 440.768 293.645 474.296 293.613 508.084C293.562 563.349 338.287 608.178 393.552 608.178C524.111 608.178 686.615 608.178 767.262 608.178C795.109 608.178 817.52 585.613 817.52 557.766C817.52 539.954 817.52 520.365 817.52 504.265C817.52 498.627 822.737 494.961 827.082 498.553C835.3 505.105 844.308 510.165 853.52 515.178C854.183 515.541 854.847 515.905 855.53 516.279C890.146 535.018 927.039 543.376 966.145 543.49C967.43 543.494 967.43 543.494 968.741 543.498C983.674 543.503 997.874 542.268 1012.52 539.178C1013.25 539.034 1013.99 538.889 1014.75 538.741C1046.76 532.389 1077.97 516.906 1103.57 496.885C1107.03 494.194 1110.48 496.476 1110.43 500.855C1109.73 564.509 1104.89 1008.49 1104.99 1247.66C1104.99 1254.93 1104.92 1263.63 1111.45 1260.44C1120.81 1255.86 1138.16 1251.85 1141.86 1261.59C1155.53 1297.65 1201.2 1302.92 1202 1302.5C1214.77 1295.63 1166.21 1210.1 1177.05 1200.47C1178.43 1199.26 1179.83 1198.06 1181.23 1196.87C1187.43 1191.52 1192.57 1185.69 1197.52 1179.18C1198.12 1178.4 1198.12 1178.4 1198.72 1177.61C1215.92 1155.06 1226.18 1129.47 1233.14 1102.18C1233.44 1101.04 1233.44 1101.04 1233.73 1099.88C1236.95 1086.88 1239.09 1073.64 1240.67 1060.35C1240.76 1059.62 1240.85 1058.9 1240.94 1058.16C1242.82 1042.04 1243.1 1026.04 1243.04 1009.82C1243.04 1005.68 1243.05 1001.53 1243.06 997.378C1243.08 990.146 1243.08 982.915 1243.07 975.683C1243.06 964.93 1243.08 954.177 1243.09 943.424C1243.12 925.326 1243.13 907.228 1243.13 889.13C1243.13 871.234 1243.13 853.337 1243.15 835.441C1243.15 833.767 1243.15 833.767 1243.15 832.058C1243.16 826.387 1243.17 820.716 1243.17 815.046C1243.21 774.972 1243.24 734.899 1243.25 694.825C1243.26 655.916 1243.28 617.007 1243.31 578.098C1243.31 576.897 1243.31 575.695 1243.32 574.458C1243.32 562.394 1243.33 550.329 1243.34 538.265C1243.37 513.693 1243.38 489.121 1243.4 464.549C1243.4 463.419 1243.4 462.29 1243.41 461.126C1243.45 402.755 1243.48 344.384 1243.5 286.014C1243.5 285.193 1260 233.613 1260 232.767C1260.01 217.43 1231.08 235.178 1215.75 235.178C1191.56 235.178 1167.27 235.178 1142.63 235.178C1131.26 235.178 1102.92 214.268 1106.52 225.053C1115.3 260.192 1135.5 334.602 1121.52 368.178C1121.21 368.945 1120.9 369.712 1120.59 370.502C1105.05 408.988 1073.46 443.696 1034.99 460.268C1028.9 462.761 1022.73 465.003 1016.52 467.178C1015.39 467.589 1014.26 468 1013.1 468.424C974.972 481.369 929.844 477.837 893.758 460.494C875.26 451.192 859.557 439.315 844.52 425.178C843.821 424.545 843.122 423.912 842.403 423.26C819.826 402.041 804.988 370.668 798.207 340.803C797.968 339.752 797.968 339.752 797.724 338.68C792.609 314.539 793.993 287.06 799.707 263.115C799.879 262.385 800.051 261.655 800.228 260.902C801.746 255.038 803.913 249.465 806.126 243.836C806.616 242.586 806.616 242.586 807.115 241.31C807.668 239.895 808.223 238.481 808.778 237.067C809.133 236.162 808.462 235.185 807.491 235.192C791.19 235.302 774.89 235.385 758.59 235.437C750.707 235.463 742.824 235.498 734.942 235.555C728.07 235.605 721.199 235.637 714.328 235.648C710.69 235.655 707.052 235.67 703.415 235.707C699.352 235.747 695.29 235.748 691.226 235.746C690.023 235.764 688.82 235.782 687.58 235.8C681.191 235.76 679.291 235.749 677.443 234.713C675.531 233.642 673.808 231.889 672.629 230.041C670.679 226.983 670.94 223.064 672.642 219.861C674.461 216.439 677.506 213.975 680.977 211.244C682.81 209.91 684.658 208.595 686.516 207.295C689.649 205.087 692.679 202.777 695.707 200.428C700.61 196.631 705.552 192.89 710.52 189.178C715.463 185.482 720.385 181.763 725.27 177.99C729.165 174.982 733.077 171.999 737.02 169.053C742.714 164.797 748.368 160.49 754.02 156.178C762.37 149.808 770.751 143.483 779.168 137.201C785.814 132.231 792.421 127.211 799.02 122.178C805.922 116.913 812.835 111.665 819.79 106.47C830.238 98.6652 840.68 90.8568 851.004 82.8889C862.134 74.3005 873.268 65.7277 884.707 57.5529C891.577 52.6424 898.273 47.5435 904.918 42.3332C910.313 38.1049 915.764 33.9632 921.259 29.8662C926.982 25.5947 932.658 21.2638 938.332 16.9279C949.794 8.1849 955.77 3.62664 959.679 1.52608Z" fill="#1E81A8"/>
<path d="M969.249 1.17793C973.157 3.5186 976.678 6.36163 980.249 9.17793C981.631 10.2531 983.014 11.3273 984.398 12.4006C986.694 14.1837 988.989 15.9685 991.279 17.7585C996.25 21.6408 1001.26 25.4682 1006.31 29.2404C1011.71 33.2706 1017.09 37.33 1022.44 41.4279C1023.48 42.2277 1023.48 42.2277 1024.55 43.0436C1027.61 45.3905 1030.68 47.738 1033.74 50.0856C1045.48 59.0772 1057.31 67.9432 1069.23 76.6926C1077.56 82.8163 1085.77 89.0946 1093.97 95.3813C1098.05 98.5024 1102.14 101.605 1106.25 104.678C1115.12 111.307 1123.9 118.047 1132.66 124.811C1142.43 132.348 1152.3 139.744 1162.19 147.115C1170.13 153.043 1177.99 159.067 1185.81 165.166C1191.9 169.917 1198.05 174.567 1204.25 179.178C1206.1 180.573 1207.96 181.969 1209.81 183.365C1215.98 187.993 1222.19 192.564 1228.4 197.13C1232.83 200.391 1237.25 203.674 1241.63 207.007C1243.25 208.247 1243.25 208.247 1245.25 209.178C1245.21 208.39 1245.18 207.603 1245.14 206.791C1244.94 198.428 1246.09 191.227 1248.25 183.178C1248.67 181.401 1248.67 181.401 1249.09 179.588C1257.72 144.137 1281.95 112.23 1312.54 92.717C1327.79 83.4842 1343.92 77.2402 1361.25 73.1779C1362.43 72.8943 1362.43 72.8943 1363.64 72.6049C1371.45 70.9481 1379.21 70.8393 1387.15 70.8623C1389.42 70.8654 1391.68 70.8419 1393.94 70.8166C1407.32 70.7574 1420 72.7245 1432.75 76.9279C1433.54 77.184 1434.33 77.44 1435.14 77.7038C1473.04 90.3223 1502.78 115.822 1521.03 151.283C1534.41 178.295 1536.86 205.504 1536.76 235.178C1536.75 239.49 1536.76 243.801 1536.77 248.112C1536.78 255.649 1536.78 263.185 1536.77 270.722C1536.75 281.93 1536.75 293.139 1536.76 304.347C1536.78 324.377 1536.78 344.406 1536.76 364.435C1536.75 381.974 1536.74 399.514 1536.75 417.054C1536.75 418.219 1536.75 419.385 1536.75 420.586C1536.75 425.318 1536.75 430.05 1536.75 434.782C1536.76 479.15 1536.74 523.519 1536.71 567.888C1536.69 607.232 1536.68 646.575 1536.7 685.919C1536.7 695.985 1536.7 706.052 1536.7 716.118C1536.7 717.358 1536.7 718.598 1536.7 719.875C1536.71 752.819 1536.7 785.763 1536.69 818.707C1536.69 822.257 1536.69 825.807 1536.69 829.357C1536.69 831.712 1536.69 834.067 1536.69 836.421C1536.68 853.929 1536.68 871.437 1536.69 888.945C1536.69 908.886 1536.69 928.826 1536.67 948.767C1536.66 959.899 1536.65 971.03 1536.66 982.162C1536.67 989.632 1536.66 997.103 1536.65 1004.57C1536.64 1008.81 1536.64 1013.04 1536.65 1017.27C1536.71 1048.23 1535.04 1079.18 1530.81 1109.87C1530.59 1111.5 1530.38 1113.14 1530.16 1114.77C1528.59 1126.33 1526.75 1137.78 1524.25 1149.18C1524 1150.35 1523.75 1151.52 1523.49 1152.72C1520.06 1168.73 1516.47 1184.64 1511.25 1200.18C1510.69 1201.85 1510.69 1201.85 1510.13 1203.55C1493.24 1253.74 1469.65 1299.52 1435.7 1340.42C1433.61 1342.95 1431.56 1345.5 1429.5 1348.05C1422.78 1356.22 1415.64 1363.87 1408.19 1371.37C1407.53 1372.03 1406.87 1372.7 1406.18 1373.38C1402.27 1377.28 1398.25 1380.99 1394.07 1384.59C1391.68 1386.67 1389.38 1388.83 1387.06 1390.99C1381.67 1395.9 1376.02 1400.39 1370.17 1404.74C1368.81 1405.76 1367.45 1406.78 1366.09 1407.8C1348.57 1421.01 1330.47 1432.59 1311.25 1443.18C1310.36 1443.67 1309.47 1444.16 1308.56 1444.67C1241.49 1481.43 1164.59 1501.94 1088.71 1509.27C1087.94 1509.34 1087.17 1509.42 1086.38 1509.49C1084.78 1509.65 1083.18 1509.8 1081.59 1509.95C1080.08 1510.1 1078.58 1510.24 1077.08 1510.39C1050.84 1512.95 1024.8 1513.62 998.435 1513.5C994.495 1513.49 990.556 1513.49 986.617 1513.5C966.07 1513.52 945.705 1513.3 925.249 1511.18C923.41 1511 921.571 1510.82 919.732 1510.64C914.44 1510.12 909.157 1509.53 903.874 1508.93C902.942 1508.82 902.011 1508.71 901.051 1508.6C862.383 1504.13 823.512 1497.51 786.478 1485.24C784.05 1484.44 781.619 1483.65 779.185 1482.87C760.178 1476.76 741.495 1470.33 723.249 1462.18C721.798 1461.54 721.798 1461.54 720.318 1460.89C678.457 1442.41 639.443 1419.47 604.249 1390.18C603.244 1389.35 602.238 1388.52 601.202 1387.66C583.163 1372.67 564.748 1356.34 550.323 1337.81C548.331 1335.28 546.253 1332.87 544.128 1330.46C509.203 1290.62 484.035 1242.92 466.812 1193.05C466.434 1191.97 466.434 1191.97 466.049 1190.86C451.793 1149.56 447.896 1106.41 467.066 1066.08C483.684 1032.18 511.983 1004.68 547.812 991.865C584.836 979.256 626.4 980.685 661.78 997.795C674.576 1004.21 685.519 1011.42 696.046 1021.17C698.333 1023.31 698.333 1023.31 701.312 1025.55C723.854 1045.7 737.031 1076.81 744.124 1105.62C751.594 1134.48 768.955 1160.73 789.249 1182.18C790.079 1183.07 790.909 1183.97 791.765 1184.89C798.873 1192.31 807.093 1199.78 816.472 1204.23C819.276 1205.72 820.785 1208.13 822.687 1210.62C824.499 1212.43 825.754 1212.79 828.249 1213.18C828.249 1213.84 828.249 1214.5 828.249 1215.18C830.777 1216.49 833.29 1217.6 835.937 1218.68C839.249 1220.18 839.249 1220.18 840.249 1222.18C842.132 1223.08 842.132 1223.08 844.312 1223.8C845.045 1224.06 845.779 1224.32 846.534 1224.59C847.1 1224.79 847.666 1224.98 848.249 1225.18C848.249 1225.84 848.249 1226.5 848.249 1227.18C849.518 1227.55 849.518 1227.55 850.812 1227.93C854.633 1229.32 857.768 1231.09 861.249 1233.18C861.249 1233.84 861.249 1234.5 861.249 1235.18C861.864 1235.38 862.479 1235.59 863.112 1235.8C866.491 1236.93 869.87 1238.05 873.249 1239.18C873.249 1239.84 873.249 1240.5 873.249 1241.18C874.384 1241.28 875.518 1241.38 876.687 1241.49C879.757 1241.87 882.503 1242.51 885.421 1243.53C896.442 1247.3 907.598 1251.11 919.171 1252.68C921.577 1253.07 923.846 1253.55 926.202 1254.14C935.773 1256.54 944.845 1257.68 954.725 1257.85C955.603 1257.87 956.481 1257.89 957.386 1257.9C958.156 1257.91 958.927 1257.92 959.721 1257.92C962.249 1258.18 962.249 1258.18 965.179 1259.19C971.02 1260.95 977.213 1260.32 983.241 1260.19C984.597 1260.17 985.952 1260.14 987.307 1260.12C990.133 1260.07 992.959 1260.02 995.784 1259.96C999.413 1259.88 1003.04 1259.81 1006.67 1259.75C1009.46 1259.71 1012.25 1259.66 1015.04 1259.6C1017.03 1259.57 1019.02 1259.53 1021.01 1259.49C1022.81 1259.46 1022.81 1259.46 1024.65 1259.42C1026.24 1259.38 1026.24 1259.38 1027.86 1259.35C1030.2 1259.44 1030.2 1259.44 1031.25 1258.18C1034.56 1257.94 1037.86 1257.78 1041.17 1257.66C1045.33 1257.46 1048.43 1256.75 1052.25 1255.18C1054.97 1254.78 1057.64 1254.45 1060.37 1254.18C1072.37 1253.08 1072.37 1253.08 1083.81 1249.62C1086.95 1248.3 1088.76 1247.96 1092.06 1247.74C1096.92 1247.4 1100.79 1245.99 1105.22 1244.02C1107 1243.5 1100.5 1244.5 1102.5 1244.5C1102.69 1243.73 1108 1241.5 1109 1241C1112 1238.5 1113.89 1236.87 1117.94 1235.62C1139.7 1228.23 1159.66 1215.67 1176.78 1200.47C1178.16 1199.26 1179.56 1198.06 1180.96 1196.87C1187.16 1191.52 1192.29 1185.69 1197.25 1179.18C1197.84 1178.4 1197.84 1178.4 1198.45 1177.61C1215.65 1155.06 1225.91 1129.47 1232.87 1102.18C1233.17 1101.04 1233.17 1101.04 1233.46 1099.88C1236.68 1086.88 1238.82 1073.64 1240.4 1060.35C1240.49 1059.62 1240.58 1058.9 1240.67 1058.16C1242.55 1042.04 1242.83 1026.04 1242.77 1009.82C1242.76 1005.68 1242.78 1001.53 1242.79 997.378C1242.81 990.146 1242.81 982.915 1242.8 975.683C1242.79 964.93 1242.8 954.177 1242.82 943.424C1242.85 925.326 1242.86 907.228 1242.86 889.13C1242.86 871.234 1242.86 853.337 1242.88 835.441C1242.88 833.767 1242.88 833.767 1242.88 832.058C1242.89 826.387 1242.9 820.716 1242.9 815.046C1242.94 774.972 1242.97 734.899 1242.98 694.825C1242.99 655.916 1243.01 617.007 1243.04 578.098C1243.04 576.897 1243.04 575.695 1243.04 574.458C1243.05 562.394 1243.06 550.329 1243.07 538.265C1243.09 513.693 1243.11 489.121 1243.13 464.549C1243.13 463.419 1243.13 462.29 1243.14 461.126C1243.18 402.755 1243.21 344.384 1243.23 286.014C1243.23 285.193 1243.23 284.373 1243.23 283.527C1243.24 267.411 1243.24 251.294 1243.25 235.178C1202.33 235.178 1161.41 235.178 1119.25 235.178C1122.22 244.088 1125.19 252.998 1128.25 262.178C1137.03 297.317 1135.22 334.602 1121.25 368.178C1120.94 368.945 1120.63 369.712 1120.32 370.502C1104.78 408.988 1073.19 443.696 1034.72 460.268C1028.63 462.761 1022.46 465.003 1016.25 467.178C1015.12 467.589 1013.99 468 1012.83 468.424C974.701 481.369 929.573 477.837 893.487 460.494C874.989 451.192 859.287 439.315 844.249 425.178C843.55 424.545 842.852 423.912 842.132 423.26C819.555 402.041 804.717 370.668 797.937 340.803C797.777 340.102 797.618 339.402 797.453 338.68C792.338 314.539 793.723 287.06 799.437 263.115C799.608 262.385 799.78 261.655 799.957 260.902C801.476 255.038 803.643 249.465 805.856 243.836C806.345 242.586 806.345 242.586 806.844 241.31C807.644 239.265 808.446 237.221 809.249 235.178C808.245 235.185 808.245 235.185 807.22 235.192C790.92 235.302 774.62 235.385 758.319 235.437C750.436 235.463 742.554 235.498 734.671 235.555C727.8 235.605 720.928 235.637 714.057 235.648C710.419 235.655 706.782 235.67 703.144 235.707C699.081 235.747 695.019 235.748 690.956 235.746C689.752 235.764 688.549 235.782 687.309 235.8C678.215 235.744 678.215 235.744 674.517 232.767C671.962 229.85 671.358 228.855 670.749 225.053C671.587 218.56 675.705 215.18 680.706 211.244C682.54 209.91 684.387 208.595 686.245 207.295C689.378 205.087 692.408 202.777 695.437 200.428C700.34 196.631 705.282 192.89 710.249 189.178C715.192 185.482 720.115 181.763 724.999 177.99C728.894 174.982 732.806 171.999 736.749 169.053C742.443 164.797 748.097 160.49 753.749 156.178C762.1 149.808 770.481 143.483 778.898 137.201C785.544 132.231 792.151 127.211 798.749 122.178C805.652 116.913 812.564 111.665 819.52 106.47C829.967 98.6652 840.41 90.8568 850.734 82.8889C861.863 74.3005 872.998 65.7277 884.437 57.5529C891.307 52.6424 898.002 47.5435 904.647 42.3332C910.042 38.1049 915.494 33.9632 920.989 29.8662C926.711 25.5947 932.388 21.2638 938.062 16.9279C962.008 -1.33843 962.008 -1.33843 969.249 1.17793Z" fill="#D42021"/>
<path d="M970.5 1.17793C974.408 3.5186 977.929 6.36163 981.5 9.17793C982.882 10.2531 984.265 11.3273 985.648 12.4006C987.945 14.1837 990.239 15.9685 992.53 17.7585C997.501 21.6408 1002.51 25.4682 1007.56 29.2404C1012.96 33.2706 1018.34 37.33 1023.69 41.4279C1024.73 42.2277 1024.73 42.2277 1025.8 43.0436C1028.86 45.3905 1031.93 47.738 1034.99 50.0856C1046.73 59.0772 1058.56 67.9432 1070.48 76.6926C1078.81 82.8163 1087.02 89.0946 1095.22 95.3813C1099.3 98.5024 1103.39 101.605 1107.5 104.678C1116.37 111.307 1125.15 118.047 1133.91 124.811C1143.68 132.348 1153.55 139.744 1163.44 147.115C1171.38 153.043 1179.24 159.067 1187.06 165.166C1193.15 169.917 1199.3 174.567 1205.5 179.178C1207.35 180.573 1209.21 181.969 1211.06 183.365C1217.23 187.993 1223.44 192.564 1229.65 197.13C1234.09 200.391 1238.5 203.674 1242.88 207.007C1244.5 208.247 1244.5 208.247 1246.5 209.178C1246.5 209.838 1246.5 210.498 1246.5 211.178C1247.34 211.518 1247.34 211.518 1248.19 211.865C1251.14 213.539 1253.18 215.727 1255.5 218.178C1255.83 218.508 1256.16 218.838 1256.5 219.178C1256.67 221.104 1256.67 221.104 1256.69 223.49C1256.7 224.27 1256.72 225.05 1256.73 225.854C1256.47 228.447 1255.91 229.993 1254.5 232.178C1251.27 234.102 1249.28 235.178 1245.5 235.178C1245.5 497.858 1245.5 760.538 1245.5 1031.18C1245.17 1031.18 1244.84 1031.18 1244.5 1031.18C1244.5 768.498 1244.5 505.818 1244.5 235.178C1203.58 235.178 1162.66 235.178 1120.5 235.178C1123.47 244.088 1126.44 252.998 1129.5 262.178C1138.28 297.317 1136.48 334.602 1122.5 368.178C1122.19 368.945 1121.88 369.712 1121.57 370.502C1106.03 408.988 1074.44 443.696 1035.97 460.268C1029.88 462.761 1023.71 465.003 1017.5 467.178C1016.37 467.589 1015.24 468 1014.08 468.424C975.952 481.369 930.824 477.837 894.738 460.494C876.24 451.192 860.537 439.315 845.5 425.178C844.801 424.545 844.103 423.912 843.383 423.26C820.806 402.041 805.968 370.668 799.188 340.803C799.028 340.102 798.868 339.402 798.704 338.68C793.589 314.539 794.974 287.06 800.688 263.115C800.859 262.385 801.031 261.655 801.208 260.902C802.727 255.038 804.893 249.465 807.107 243.836C807.433 243.003 807.759 242.169 808.095 241.31C808.895 239.265 809.697 237.221 810.5 235.178C809.496 235.185 809.496 235.185 808.471 235.192C792.171 235.302 775.871 235.385 759.57 235.437C751.687 235.463 743.805 235.498 735.922 235.555C729.051 235.605 722.179 235.637 715.308 235.648C711.67 235.655 708.033 235.67 704.395 235.707C700.332 235.747 696.27 235.748 692.207 235.746C691.003 235.764 689.8 235.782 688.56 235.8C679.466 235.744 679.466 235.744 675.768 232.767C673.213 229.85 672.608 228.855 672 225.053C672.838 218.56 676.956 215.18 681.957 211.244C683.791 209.91 685.638 208.595 687.496 207.295C690.629 205.087 693.659 202.777 696.688 200.428C701.59 196.631 706.533 192.89 711.5 189.178C716.443 185.482 721.365 181.763 726.25 177.99C730.145 174.982 734.057 171.999 738 169.053C743.694 164.797 749.348 160.49 755 156.178C763.35 149.808 771.731 143.483 780.148 137.201C786.794 132.231 793.401 127.211 800 122.178C806.903 116.913 813.815 111.665 820.771 106.47C831.218 98.6652 841.66 90.8568 851.984 82.8889C863.114 74.3005 874.249 65.7277 885.688 57.5529C892.558 52.6424 899.253 47.5435 905.898 42.3332C911.293 38.1049 916.744 33.9632 922.24 29.8662C927.962 25.5947 933.638 21.2638 939.312 16.9279C963.259 -1.33843 963.259 -1.33843 970.5 1.17793Z" fill="#EFB104"/>
<path d="M816 1205C820.334 1205.69 821.666 1207.95 824.196 1211.4C825.955 1213.25 827.15 1213.6 829.599 1213.99V1215.99C832.055 1217.3 834.495 1218.41 837.066 1219.49C840.283 1220.98 840.283 1220.98 841.255 1222.98C843.083 1223.88 843.083 1223.88 845.201 1224.6L847.36 1225.39L849.025 1225.98V1227.98L851.515 1228.73C855.227 1230.11 858.271 1231.88 861.653 1233.97V1235.97L873.309 1239.96V1241.96L876.648 1242.27C879.63 1242.66 882.297 1243.29 885.132 1244.31C895.837 1248.08 906.673 1251.89 917.915 1253.45C920.252 1253.84 922.455 1254.32 924.744 1254.91C934.04 1257.31 942.852 1258.45 952.45 1258.62L955.034 1258.67L957.302 1258.69C959.758 1258.94 959.758 1258.94 962.603 1259.96C968.277 1261.71 974.293 1261.09 980.148 1260.95C981.465 1260.93 982.781 1260.91 984.098 1260.89C986.843 1260.84 989.587 1260.78 992.332 1260.72C995.856 1260.64 999.381 1260.58 1002.91 1260.52C1005.62 1260.47 1008.33 1260.42 1011.04 1260.37C1012.97 1260.33 1014.91 1260.3 1016.84 1260.26L1020.37 1260.18L1023.49 1260.12C1025.76 1260.21 1025.76 1260.21 1026.78 1258.94C1029.99 1258.71 1033.2 1258.55 1036.42 1258.43C1040.46 1258.23 1043.47 1257.52 1047.18 1255.95C1049.82 1255.55 1052.42 1255.22 1055.07 1254.95C1066.73 1253.85 1066.73 1253.85 1077.84 1250.39C1080.88 1249.08 1082.64 1248.73 1085.85 1248.52C1090.57 1248.18 1094.33 1246.76 1098.63 1244.8C1100.6 1243.96 1100.6 1243.96 1102.54 1243.96L1103.21 1241.53L1104.49 1238.97C1105.74 1238.57 1106.41 1239.22 1107.05 1239.96H1108.37C1108.63 1239.43 1108.98 1241.11 1109.28 1241.53C1109.35 1241.53 1109.42 1241.53 1109.5 1241.53C1109.43 1241.67 1109.36 1241.64 1109.28 1241.53C1108.24 1241.51 1107.66 1240.69 1107.05 1239.96H1105.46C1104.42 1246.91 1104.35 1253.73 1104.35 1260.76C1104.34 1262.7 1104.34 1264.64 1104.33 1266.59C1104.33 1268.67 1104.33 1270.75 1104.32 1272.83C1104.32 1277.2 1104.3 1281.56 1104.28 1285.93L1104.26 1292.72C1104.21 1302.88 1104.18 1313.03 1104.17 1323.18C1104.16 1330.05 1104.14 1336.91 1104.1 1343.78C1104.08 1347.4 1104.07 1351.01 1104.08 1354.63C1104.13 1403.44 1104.13 1403.44 1093.26 1421.26C1091.86 1423.78 1091.12 1425.98 1090.4 1428.77C1089.61 1431.7 1088.93 1433.79 1087.37 1436.39C1085.76 1438.83 1085.76 1438.83 1085.84 1442.4C1085.26 1447.77 1082.37 1450.92 1078.99 1454.87L1077.3 1456.92C1076.21 1458.25 1075.1 1459.57 1073.99 1460.88C1072.55 1462.6 1071.14 1464.34 1069.74 1466.1C1067.58 1468.73 1067.58 1468.73 1065.21 1470.67C1063.06 1472.44 1061.59 1474.05 1059.87 1476.22C1057.24 1479.45 1054.57 1481.49 1051.06 1483.72C1049.42 1484.89 1047.78 1486.08 1046.15 1487.27C1043 1489.57 1039.81 1491.67 1036.49 1493.7L1033.76 1495.7C1029.3 1498.59 1024.68 1500.19 1019.62 1501.63C1016.92 1502.4 1016.92 1502.4 1016.21 1504.69C1015.12 1506.69 1015.12 1506.69 1013.09 1507.41L1010.75 1507.75C1008.45 1508.04 1008.45 1508.04 1006.38 1508.69L1004.44 1511.69C1011.47 1511.45 1018.5 1511.2 1025.53 1510.94C1027.91 1510.86 1030.3 1510.77 1032.68 1510.69C1044.82 1510.28 1056.84 1509.8 1068.89 1508.16C1074.12 1507.47 1079.36 1507.1 1084.61 1506.74L1085.3 1506.69C1092.85 1506.14 1100.23 1505.41 1107.68 1504.07C1112.12 1503.44 1116.54 1503.53 1121 1503.69V1504.69C1108.72 1506.54 1096.41 1508.16 1084.09 1509.69L1081.55 1510.01C1051.35 1513.78 1021.22 1514.04 990.841 1514L987.891 1513.99C981.306 1513.98 974.721 1513.96 968.136 1513.92L965.56 1513.91C954.529 1513.86 943.566 1513.47 932.56 1512.69L931.589 1510.69C929.879 1509.99 929.879 1509.99 927.806 1509.51L925.478 1508.88C923.857 1508.47 922.236 1508.05 920.614 1507.63C916.49 1506.53 913.526 1505.56 910.22 1502.7C908.602 1501.96 906.961 1501.27 905.302 1500.64C902.384 1499.51 900.211 1498.5 897.592 1496.7L895.103 1496.02C891.142 1494.46 888.119 1492.19 884.726 1489.65L884.457 1489.45C882.384 1487.95 880.338 1486.68 878.105 1485.46C875.252 1483.72 875.252 1483.72 874.28 1480.72L872.338 1479.78C870.395 1478.72 870.395 1478.72 869.666 1476.6L869.424 1474.72H867.481C863.629 1471.09 859.888 1467.08 856.796 1462.74V1460.74H854.854V1458.74L852.547 1458.05C849.312 1456.39 849.239 1455.16 848.054 1451.75C846.78 1450.39 845.484 1449.06 844.169 1447.75C842.372 1445.08 841.329 1443.3 840.891 1440.07L840.283 1437.76C838.67 1437.08 837.051 1436.42 835.427 1435.76C833.902 1432.85 833.484 1431.09 833.484 1427.77H831.541C829.471 1421.48 827.413 1415.2 825.713 1408.79H823.771C823.323 1406.69 822.879 1404.59 822.435 1402.49L821.684 1398.94C821.408 1397.56 821.132 1396.18 820.857 1394.81L820.361 1392.5C818.835 1384.84 818.623 1377.41 818.62 1369.61C818.612 1368.21 818.604 1366.82 818.595 1365.42C818.577 1362.44 818.565 1359.45 818.558 1356.47C818.547 1351.72 818.522 1346.97 818.496 1342.22C818.456 1334.68 818.424 1327.13 818.396 1319.59C818.347 1306.16 818.285 1292.73 818.216 1279.3C818.193 1274.6 818.174 1269.91 818.159 1265.22C818.111 1251.05 817.992 1236.89 817.503 1222.72L817.39 1219.37C817.202 1214.5 816.956 1209.79 816 1205Z" fill="#F25C54"/>
<path d="M810.151 233.387C812.374 233.015 812.374 233.015 815.207 233.018C816.822 233.009 816.822 233.009 818.47 233C819.663 233.009 820.855 233.017 822.084 233.026C823.344 233.024 824.603 233.021 825.901 233.019C829.408 233.012 832.915 233.024 836.422 233.039C840.2 233.052 843.978 233.048 847.755 233.045C854.305 233.044 860.854 233.053 867.403 233.07C876.871 233.094 886.34 233.102 895.809 233.106C911.171 233.113 926.532 233.133 941.893 233.161C956.819 233.188 971.744 233.21 986.669 233.222C988.048 233.224 988.048 233.224 989.455 233.225C994.068 233.229 998.68 233.233 1003.29 233.236C1041.58 233.267 1079.86 233.32 1118.15 233.387C1118.95 235.125 1119.75 236.864 1120.55 238.604C1120.99 239.572 1121.44 240.54 1121.89 241.538C1137.73 277.455 1137.6 323.073 1123.94 359.528C1123.04 361.826 1122.1 364.107 1121.15 366.387C1120.84 367.154 1120.53 367.921 1120.22 368.711C1104.68 407.197 1073.09 441.906 1034.62 458.477C1028.53 460.971 1022.36 463.212 1016.15 465.387C1015.02 465.798 1013.89 466.21 1012.73 466.633C974.603 479.578 929.475 476.046 893.389 458.704C874.891 449.401 859.188 437.524 844.151 423.387C843.452 422.754 842.753 422.121 842.034 421.469C819.457 400.251 804.619 368.877 797.838 339.012C797.679 338.312 797.519 337.611 797.355 336.889C790.493 304.503 794.189 266.48 808.151 236.387C808.811 235.397 809.471 234.407 810.151 233.387Z" fill="#242824"/>
</svg>
