<svg width="187" height="189" viewBox="0 0 187 189" fill="none" xmlns="http://www.w3.org/2000/svg">
<g clip-path="url(#clip0_1_2651)">
<rect width="186.25" height="189" rx="93.125" fill="#CFE1ED"/>
<g clip-path="url(#clip1_1_2651)">
<path d="M125.34 95.0793C124.34 94.8993 124.7 95.5893 124.68 96.2193C124.28 106.429 124.35 114.359 118.4 123.159C116.79 125.539 115.57 126.419 113.11 127.789C105.33 132.109 98.21 131.579 90.31 127.789C88.6 126.969 86.93 125.929 85.35 124.819C85.07 124.619 84.84 123.689 84.2 123.829C83 124.089 84.06 125.119 84.36 125.479C84.6 125.769 84.84 125.939 85.02 126.139C85.26 126.419 85.49 126.589 85.68 126.799C85.79 126.909 85.9 127.019 86.01 127.129C86.35 127.489 86.65 127.779 87 128.119C87.94 129.049 88.52 129.879 89.64 130.759C89.96 131.009 90.21 131.319 90.63 131.419C91.21 131.979 91.32 132.009 91.95 132.409C92.05 132.469 92.15 132.819 92.61 133.069C92.7 133.119 92.86 133.019 92.94 133.069C95.97 135.839 100.7 137.569 104.78 137.939C105.42 137.999 105.91 138.129 106.49 137.689C106.56 139.279 106.24 140.159 107.64 141.329C109.04 142.499 112.86 143.339 114.75 143.969L113.1 148.929C112.9 149.249 112.65 149.599 112.44 149.919C111.55 150.149 111.12 151.489 110.7 151.819C110.49 151.979 110.19 151.859 110.13 151.899C103.84 156.369 94.73 156.999 87.41 154.959C85.89 154.539 83.13 152.999 82.04 152.889C81.83 152.869 81.59 152.879 81.38 152.889C81.01 152.019 80.03 151.789 79.4 151.239C79.28 151.139 79.18 151.019 79.07 150.909C78.84 150.689 78.62 150.479 78.41 150.249C76.59 148.289 74.95 145.639 74.45 142.979C78.36 141.619 82.03 140.619 82.71 135.879C83.08 133.339 83.43 127.399 83.21 124.959C83.18 124.579 82.02 122.239 81.71 121.499C80.4 118.369 78.91 115.279 77.75 112.079C75.31 111.909 73.35 112.629 70.8 111.919C65.15 110.349 61 101.969 65.18 97.0493C65.49 96.6893 67.56 95.5793 68.06 95.4693C71.8 94.6993 74.51 96.8993 77.23 99.0293C79.55 94.7993 79.7 89.8293 80.78 85.2293C88.39 83.1493 94.65 77.6793 99.04 71.2793C105.7 77.1793 114.55 79.2093 122.65 82.3593C123.87 83.4993 125.24 92.3993 125.31 94.4093C125.31 94.6293 125.31 94.8493 125.31 95.0693L125.34 95.0793ZM87.67 84.9893C86.62 85.5893 84.11 86.9393 85.18 88.4793C85.93 89.5693 89.63 86.7093 91.17 86.5093C92.57 86.3193 95.87 87.1793 96.61 86.6593C97.98 85.6993 96.11 83.8393 94.7 83.5793C92.02 83.0993 89.95 83.6793 87.67 84.9793V84.9893ZM110.69 86.4393C111.6 86.7393 114.32 85.9193 115.9 86.1693C117.18 86.3793 120.59 89.4993 121.03 87.9293C120.96 84.1693 112.49 82.6493 110.55 84.5693C110.1 85.0193 109.89 86.1693 110.69 86.4293V86.4393ZM112.44 93.8993C110.35 96.2593 111.28 102.449 115.22 101.289C115.65 101.159 115.67 100.759 115.76 100.689C115.87 100.609 116.01 100.469 116.09 100.359C118.8 96.8093 115.56 90.3593 112.44 93.8993ZM94.3 93.8893C94.05 93.7193 94.05 93.1793 93.72 93.0893C93.39 92.9993 92.03 93.0293 91.64 93.0893C89.06 93.5593 89 98.9493 90.7 100.809C94.28 104.729 98.02 97.3493 94.95 94.0793C94.92 94.0393 94.55 94.0593 94.3 93.8793V93.8893ZM104.18 95.8893C102.88 96.8493 105.18 100.149 105.85 101.029C106.1 101.369 106.38 101.529 106.51 101.689C107.21 102.579 108.68 103.719 108.82 104.659C108.85 104.869 108.87 105.519 108.82 105.649C108.8 105.709 108.42 106.129 108.16 106.639C107.09 107.429 104.74 107.039 104 107.599C103.03 108.339 103.48 109.099 104.52 109.279C104.8 109.329 105.2 109.279 105.51 109.279C106.81 109.279 107.34 109.299 108.48 108.619C109.33 108.119 110.13 107.239 110.46 106.309C110.82 105.279 111.04 104.119 110.48 103.139C110.34 102.909 109.91 102.809 109.8 102.679C109.08 101.779 107.99 101.019 107.49 100.369C107.36 100.199 107.29 99.9093 107.16 99.7093C106.56 98.7693 105.53 94.8993 104.17 95.8993L104.18 95.8893ZM72.14 104.499C72.83 105.389 73.54 107.959 74.62 107.629C76.87 106.939 72.07 100.729 69.92 100.419C66.5 99.9293 71.79 104.059 72.14 104.499ZM119.62 107.319C120.3 107.319 120.84 106.769 120.84 106.099C120.84 105.419 120.29 104.879 119.62 104.879C118.95 104.879 118.4 105.429 118.4 106.099C118.4 106.779 118.95 107.319 119.62 107.319ZM115.93 110.619C117.84 110.819 116.64 107.739 116.25 107.629C114.52 107.169 114.27 110.439 115.93 110.619ZM98.18 111.169C96.12 110.549 92.44 107.769 91.97 111.749C90.94 120.359 101.89 127.019 108.5 120.839C108.8 120.559 109.22 119.899 109.49 119.519C109.8 119.089 109.85 119.039 110.15 118.529C110.4 118.429 110.61 118.599 110.96 118.189C111.05 118.089 112.14 115.999 112.21 115.799C113.37 112.329 111.52 112.839 109.16 112.579C105.12 112.139 102.46 112.449 98.19 111.159L98.18 111.169Z" fill="#FDAD87"/>
<path d="M126.99 93.7493C126.25 93.5993 125.65 93.6893 125.34 94.4093C125.34 94.6293 125.34 94.8493 125.34 95.0693C125.34 100.179 124.94 106.909 123.79 111.859C122.88 115.819 121.22 120.189 118.4 123.149C116.79 125.529 115.57 126.409 113.11 127.779C111.83 128.869 109.67 130.079 108.15 130.749C105.4 131.959 103.33 131.859 100.37 131.739C99.73 131.719 99.04 132.079 99.23 131.079C99.01 131.079 98.78 131.059 98.57 131.079C98.12 131.129 97.08 132.129 97.25 130.749C97.03 130.749 96.81 130.759 96.59 130.749C96.56 130.749 96.41 131.039 96.14 131.009C95.67 130.959 95.47 130.509 95.26 130.419C93.58 129.689 91.62 129.099 90.3 127.779C88.59 126.959 86.92 125.919 85.34 124.809C84.38 124.139 84.23 124.389 84.35 125.469C84.59 125.759 84.83 125.929 85.01 126.129C85.71 126.049 85.75 126.089 85.67 126.789C85.78 126.899 85.89 127.009 86 127.119L86.99 128.109C87.93 129.039 88.51 129.869 89.63 130.749L89.79 130.429C90.19 130.629 90.37 131.179 90.62 131.419C91.2 131.979 91.31 132.009 91.94 132.409L92.6 133.069C92.69 133.119 92.85 133.019 92.93 133.069C94.9 134.179 97.69 135.639 100.02 136.379C101.74 136.929 103.66 137.359 105.48 137.359V132.569C105.48 132.049 109.02 131.219 109.77 130.909C111.17 130.329 112.47 129.549 113.69 128.809C113.84 128.719 115.02 127.959 115.06 128.429C116.77 127.169 117.62 126.399 119.02 124.799C121.31 121.079 123.4 117.289 124.48 112.919C125.58 108.489 125.76 103.739 125.96 99.1793C125.99 98.5393 125.62 97.8593 126.62 98.0393C126.64 97.8293 126.59 97.5893 126.62 97.3793C126.31 97.0993 126.22 96.7993 126.3 96.3793L126.62 96.7193C126.62 96.7193 126.91 96.7793 126.95 96.5493C127.09 95.7593 127.08 94.8693 127.28 94.0693C127.16 94.0193 127.03 93.7593 126.95 93.7393L126.99 93.7493Z" fill="#231B25"/>
<path d="M127.32 94.0793C127.12 94.8793 127.12 95.7593 126.99 96.5593C126.95 96.7893 126.67 96.7093 126.66 96.7293C126.63 96.9393 126.69 97.1793 126.66 97.3893C126.63 97.5993 126.68 97.8393 126.66 98.0493C126.21 102.159 126.35 106.579 125.67 110.609C132.19 108.019 134.85 97.0393 127.32 94.0893V94.0793Z" fill="#FCAB84"/>
<path d="M115.1 128.449C115.06 127.979 113.88 128.729 113.73 128.829C112.51 129.569 111.2 130.349 109.81 130.929C109.06 131.239 105.52 132.059 105.52 132.589V137.379C103.7 137.379 101.78 136.949 100.06 136.399C97.72 135.649 94.94 134.199 92.97 133.089C96 135.859 100.73 137.589 104.81 137.959C105.45 138.019 105.94 138.149 106.52 137.709C106.44 135.959 106.56 134.179 106.53 132.439C109.71 132.039 112.56 130.339 115.11 128.459L115.1 128.449Z" fill="#140E19"/>
<path d="M70.82 111.929C70.58 112.559 72.48 113.439 72.72 113.499C73.53 113.699 75.9 113.429 76.11 113.579C76.26 113.679 77.28 116.509 77.76 116.879C77.76 116.859 78.06 116.679 78.02 116.449C77.99 116.309 76.92 114.019 76.79 113.799C76.61 113.499 76.17 113.629 76.12 113.579C76.09 113.549 76.23 113.139 76.04 112.999C75.72 112.759 75.03 113.189 75.13 112.589C75.68 112.699 77.49 112.399 77.74 112.619C77.99 112.839 79.15 117.909 79.76 118.699L78.43 118.209C79 119.459 80.06 121.469 81.73 121.509C80.42 118.379 78.93 115.289 77.77 112.089C75.33 111.919 73.37 112.639 70.82 111.929Z" fill="#140E19"/>
<path d="M126.66 98.0493C125.66 97.8693 126.02 98.5493 126 99.1893C125.8 103.749 125.62 108.499 124.52 112.929C123.43 117.299 121.35 121.089 119.06 124.809C122.44 120.949 124.81 115.689 125.67 110.599C126.35 106.569 126.21 102.149 126.66 98.0393V98.0493Z" fill="#140E19"/>
<path d="M78.42 118.199L79.75 118.689C79.15 117.909 77.97 112.819 77.73 112.609C77.49 112.399 75.67 112.689 75.12 112.579C75.02 113.179 75.71 112.749 76.03 112.989C76.22 113.129 76.07 113.539 76.11 113.569C76.16 113.609 76.61 113.489 76.78 113.789C76.91 114.009 77.98 116.299 78.01 116.439C78.06 116.669 77.75 116.849 77.75 116.869C78 117.529 78.22 117.759 78.41 118.189L78.42 118.199Z" fill="#231B25"/>
<path d="M82.06 152.899C82.19 153.079 82.26 153.419 82.39 153.559L84.37 154.549C84.58 154.649 84.83 154.789 85.03 154.879C91.07 156.779 96.37 156.729 102.54 155.869C102.75 155.839 102.99 155.899 103.2 155.869C105.39 155.009 107.45 154.089 109.48 152.899C109.58 152.779 109.76 152.669 109.81 152.569C109.93 152.349 110.03 152.129 110.14 151.909C103.85 156.379 94.74 157.009 87.42 154.969C85.9 154.549 83.14 153.009 82.05 152.899H82.06Z" fill="#F5C396"/>
<path d="M85.03 154.879C89.82 157.019 96.28 157.539 101.45 156.579C102.06 156.469 102.74 156.859 102.54 155.869C96.36 156.729 91.07 156.779 85.03 154.879Z" fill="#140E19"/>
<path d="M103.2 155.869C103.2 155.869 103.39 156.139 103.63 156.109C104.26 156.029 109 153.839 109.4 153.469C109.58 153.309 109.43 152.949 109.47 152.889C107.44 154.079 105.38 155.009 103.19 155.859L103.2 155.869Z" fill="#140E19"/>
<path d="M112.46 149.919C111.57 150.149 111.14 151.489 110.72 151.819C110.51 151.979 110.21 151.859 110.15 151.899C110.04 152.119 109.94 152.339 109.82 152.559C111.73 152.309 111.79 150.909 112.46 149.919Z" fill="#140E19"/>
<path d="M79.42 151.239C79.81 152.359 80.27 152.259 80.95 152.679C81.14 152.799 81.06 153.189 81.08 153.209C81.31 153.399 81.38 152.889 81.4 152.879C81.03 152.009 80.05 151.779 79.42 151.229V151.239Z" fill="#140E19"/>
<path d="M82.39 153.559C83.13 154.329 83.66 154.199 84.37 154.549L82.39 153.559Z" fill="#140E19"/>
<path d="M79.09 150.909C78.86 150.689 78.64 150.479 78.43 150.249C77.92 150.669 78.63 150.949 79.09 150.909Z" fill="#140E19"/>
<path d="M107.17 112.919C107.39 113.439 108.6 113.439 108.82 112.919C108.93 112.919 109.04 112.919 109.15 112.919C109.9 112.949 110.67 112.829 111.42 112.959C112.05 114.939 111.13 116.849 110.14 118.539C109.66 118.729 109.31 118.119 109.48 119.529C109.21 119.909 108.79 120.569 108.49 120.849C108.28 120.889 108 120.799 107.83 120.849C104.15 122.009 102.97 122.539 98.91 121.839C98.8 121.819 98.68 121.859 98.58 121.839L98.41 121.519L98.24 121.839C96.6 121.449 95.13 119.929 94.28 118.539L92.96 115.569C92.94 115.459 92.97 115.349 92.96 115.239C92.76 113.749 92.81 112.109 92.96 110.619C93.62 109.929 98.82 112.389 99.96 112.699C101.41 113.089 103.54 113.469 105.03 113.589C105.66 113.639 106.36 113.899 106.17 112.929C106.5 112.949 106.83 112.919 107.16 112.929L107.17 112.919ZM94.45 112.589C93.98 114.199 95.17 116.149 95.94 117.539C95.98 117.609 95.61 117.429 96.27 118.199C96.39 118.349 97.11 119.059 97.26 119.189C98.24 120.039 98.64 120.569 100.17 120.779C101.13 120.909 101.34 120.519 101.56 120.509C101.99 120.479 102.47 120.569 102.88 120.509C103.2 120.899 104.67 120.979 104.86 120.839C104.94 120.779 104.8 120.319 104.86 120.179C104.89 120.109 104.86 119.959 104.86 119.849C104.86 119.829 105.15 119.769 105.04 119.529C104.96 119.349 104.58 119.289 104.53 119.189C102.08 115.089 98.32 114.809 94.45 112.579V112.589Z" fill="#231B25"/>
<path d="M94.7 83.5893C92.02 83.1093 89.95 83.6893 87.67 84.9893C86.62 85.5893 84.11 86.9393 85.18 88.4793C85.93 89.5693 89.63 86.7093 91.17 86.5093C92.57 86.3193 95.87 87.1793 96.61 86.6593C97.98 85.6993 96.11 83.8393 94.7 83.5793L94.7 83.5893Z" fill="#F16018"/>
<path d="M115.76 100.689C115.87 100.609 116.01 100.469 116.09 100.359C116.55 98.4293 117.03 93.3793 114.27 93.3893C110.91 93.3893 111.44 100.759 113.63 101.029C114.34 101.119 115.05 100.679 115.76 100.689Z" fill="#231B25"/>
<path d="M105.85 101.019C106.48 100.909 106.62 101.049 106.51 101.679C107.21 102.569 108.68 103.709 108.82 104.649C109.24 104.919 109.34 105.429 108.82 105.639C108.8 105.699 108.42 106.119 108.16 106.629C108.09 106.769 108.34 107.039 107.96 107.319C107.24 107.849 105.28 108.009 104.36 107.949L104.52 109.269C104.8 109.319 105.2 109.269 105.51 109.269C105.15 108.219 107.53 108.569 108.48 108.609C109.33 108.109 110.13 107.229 110.46 106.299C109.76 105.369 110.39 103.819 109.8 102.669C109.08 101.769 107.99 101.009 107.49 100.359L106.84 99.8593L107.16 99.6993C106.56 98.7593 105.53 94.8893 104.17 95.8893C102.81 96.8893 105.17 100.149 105.84 101.029L105.85 101.019Z" fill="#231B25"/>
<path d="M110.56 84.5793C110.11 85.0293 109.9 86.1793 110.7 86.4393C111.61 86.7393 114.33 85.9193 115.91 86.1693C117.19 86.3793 120.6 89.4993 121.04 87.9293C120.97 84.1693 112.5 82.6493 110.56 84.5693V84.5793Z" fill="#F16018"/>
<path d="M69.92 100.419C66.5 99.9293 71.79 104.059 72.14 104.499C72.83 105.389 73.54 107.959 74.62 107.629C76.87 106.939 72.07 100.729 69.92 100.419Z" fill="#231B25"/>
<path d="M125.34 95.0793C124.34 94.8993 124.7 95.5893 124.68 96.2193C124.28 106.429 124.35 114.359 118.4 123.159C121.23 120.199 122.88 115.819 123.79 111.869C124.93 106.919 125.34 100.189 125.34 95.0793Z" fill="#F5C396"/>
<path d="M90.32 127.789C91.63 129.109 93.6 129.709 95.28 130.429L96.6 130.759C96.82 130.769 97.04 130.759 97.26 130.759C97.73 130.759 98.18 130.829 98.58 131.089C98.79 131.069 99.03 131.089 99.24 131.089C100.62 131.109 101.84 131.499 103.38 131.429C104.92 131.359 106.56 130.689 108.16 130.759C109.68 130.089 111.83 128.879 113.12 127.789C105.34 132.109 98.22 131.579 90.32 127.789Z" fill="#F5C396"/>
<path d="M108.49 120.849C108.28 120.889 108 120.799 107.83 120.849C105.91 123.019 101.31 123.209 98.91 121.839C98.8 121.819 98.68 121.859 98.58 121.839C98.48 121.819 98.35 121.859 98.25 121.839C96.61 121.449 95.14 119.929 94.29 118.539C93.56 117.349 93.22 117.059 92.97 115.569C92.95 115.459 92.98 115.349 92.97 115.239C91.77 114.109 91.96 110.249 93.84 110.049C94.79 109.949 99.48 112.079 101.23 112.439C103.12 112.829 104.31 112.839 106.19 112.929C106.52 112.949 106.85 112.919 107.18 112.929C107.73 112.949 108.28 112.909 108.83 112.929C108.94 112.929 109.05 112.929 109.16 112.929V112.599C105.12 112.159 102.46 112.469 98.19 111.179C96.13 110.559 92.45 107.779 91.98 111.759C90.95 120.369 101.9 127.029 108.51 120.849L108.49 120.849Z" fill="#F5C396"/>
<path d="M116.25 107.629C114.52 107.169 114.27 110.439 115.93 110.619C117.84 110.819 116.64 107.739 116.25 107.629Z" fill="#F87B51"/>
<path d="M119.62 107.309C120.294 107.309 120.84 106.763 120.84 106.089C120.84 105.416 120.294 104.869 119.62 104.869C118.946 104.869 118.4 105.416 118.4 106.089C118.4 106.763 118.946 107.309 119.62 107.309Z" fill="#F87B51"/>
<path d="M115.76 100.689C115.05 100.689 114.34 101.119 113.63 101.029C111.44 100.759 110.91 93.3893 114.27 93.3893C117.03 93.3893 116.55 98.4293 116.09 100.359C118.8 96.8093 115.56 90.3593 112.44 93.8993C110.35 96.2593 111.28 102.449 115.22 101.289C115.65 101.159 115.67 100.759 115.76 100.689Z" fill="#140E19"/>
<path d="M109.15 112.589V112.919C109.9 112.949 110.67 112.829 111.42 112.959C112.05 114.939 111.13 116.849 110.14 118.539C109.66 118.729 109.31 118.119 109.48 119.529C109.79 119.099 109.84 119.049 110.14 118.539C110.39 118.439 110.6 118.609 110.95 118.199C111.04 118.099 112.13 116.009 112.2 115.809C113.36 112.339 111.51 112.849 109.15 112.589Z" fill="#140E19"/>
<path d="M108.16 106.639C107.09 107.429 104.74 107.039 104 107.599C103.03 108.339 103.48 109.099 104.52 109.279L104.36 107.959C105.28 108.019 107.24 107.859 107.96 107.329C108.34 107.049 108.09 106.779 108.16 106.639Z" fill="#140E19"/>
<path d="M91.64 93.0893C89.69 94.8293 89.34 98.9793 91.31 100.689C90.33 100.089 90.3 94.2093 91.52 93.7993C95.77 92.3593 95.57 99.5293 94.27 100.509C93.64 100.989 91.92 101.069 91.31 100.699C91.44 100.809 91.44 101.169 91.86 101.289C95.79 102.469 96.19 96.5693 94.95 94.0893C94.92 94.0493 94.55 94.0693 94.3 93.8893C94.05 93.7093 94.05 93.1793 93.72 93.0893C93.39 92.9993 92.03 93.0293 91.64 93.0893Z" fill="#140E19"/>
<path d="M91.64 93.0893C89.06 93.5593 89 98.9493 90.7 100.809C94.28 104.729 98.02 97.3493 94.95 94.0793C96.19 96.5593 95.8 102.459 91.86 101.279C91.44 101.159 91.44 100.799 91.31 100.689C89.34 98.9793 89.69 94.8293 91.64 93.0893Z" fill="#F5C396"/>
<path d="M110.47 106.309C110.83 105.279 111.05 104.119 110.49 103.139C110.35 102.909 109.92 102.809 109.81 102.679C110.4 103.829 109.77 105.389 110.47 106.309Z" fill="#140E19"/>
<path d="M108.49 108.619C107.54 108.579 105.15 108.229 105.52 109.279C106.82 109.279 107.35 109.299 108.49 108.619Z" fill="#140E19"/>
<path d="M84.37 125.469C84.25 124.389 84.41 124.139 85.36 124.809C85.08 124.609 84.85 123.679 84.21 123.819C83.01 124.079 84.07 125.109 84.37 125.469Z" fill="#140E19"/>
<path d="M105.85 101.019C106.1 101.359 106.38 101.519 106.51 101.679C106.62 101.049 106.48 100.909 105.85 101.019Z" fill="#140E19"/>
<path d="M108.82 105.649C109.34 105.439 109.24 104.929 108.82 104.659C108.85 104.869 108.87 105.519 108.82 105.649Z" fill="#140E19"/>
<path d="M85.03 126.129C85.27 126.409 85.5 126.579 85.69 126.789C85.77 126.089 85.73 126.049 85.03 126.129Z" fill="#140E19"/>
<path d="M89.66 130.759C89.98 131.009 90.23 131.319 90.65 131.419C90.4 131.179 90.23 130.639 89.82 130.429L89.66 130.749V130.759Z" fill="#140E19"/>
<path d="M87.01 128.119L86.02 127.129C86.36 127.489 86.66 127.779 87.01 128.119Z" fill="#140E19"/>
<path d="M92.63 133.069L91.97 132.409C92.07 132.469 92.17 132.819 92.63 133.069Z" fill="#140E19"/>
<path d="M107.5 100.359C107.37 100.189 107.3 99.8993 107.17 99.6993L106.85 99.8593L107.5 100.359Z" fill="#140E19"/>
<path d="M99.24 131.089C99.06 132.089 99.75 131.729 100.38 131.749C103.34 131.869 105.41 131.969 108.16 130.759C106.56 130.699 104.95 131.359 103.38 131.429C101.81 131.499 100.62 131.109 99.24 131.089Z" fill="#140E19"/>
<path d="M97.26 130.759C97.09 132.139 98.13 131.139 98.58 131.089C98.18 130.829 97.73 130.759 97.26 130.759Z" fill="#140E19"/>
<path d="M95.28 130.429C95.49 130.519 95.68 130.979 96.16 131.019C96.43 131.049 96.58 130.749 96.61 130.759L95.29 130.429H95.28Z" fill="#140E19"/>
<path d="M126.66 97.3893C126.69 97.1793 126.63 96.9393 126.66 96.7293L126.34 96.3893C126.26 96.8093 126.35 97.0993 126.66 97.3893Z" fill="#140E19"/>
<path d="M95.94 117.539L96.27 118.199C96.39 118.349 97.11 119.059 97.26 119.189L101.56 120.509C101.99 120.479 102.47 120.569 102.88 120.509C103.55 120.409 104.19 120.259 104.86 120.179C104.89 120.109 104.86 119.959 104.86 119.849L104.53 119.189C102.08 115.089 98.32 114.809 94.45 112.579C93.98 114.189 95.17 116.139 95.94 117.529V117.539Z" fill="#FDAD87"/>
<path d="M92.96 115.229C92.76 113.739 92.81 112.099 92.96 110.609C93.62 109.919 98.82 112.379 99.96 112.689C101.41 113.079 103.54 113.459 105.03 113.579C105.66 113.629 106.36 113.889 106.17 112.919C104.29 112.829 103.11 112.819 101.21 112.429C99.46 112.069 94.77 109.939 93.82 110.039C91.94 110.239 91.75 114.099 92.95 115.229H92.96Z" fill="#140E19"/>
<path d="M98.91 121.839C101.32 123.209 105.91 123.019 107.83 120.849C104.15 122.009 102.97 122.539 98.91 121.839Z" fill="#140E19"/>
<path d="M97.26 119.189C98.24 120.039 98.64 120.569 100.17 120.779C101.13 120.909 101.34 120.519 101.56 120.509L97.26 119.189Z" fill="#140E19"/>
<path d="M102.87 120.519C103.19 120.909 104.66 120.989 104.85 120.849C104.93 120.789 104.79 120.329 104.85 120.189C104.18 120.269 103.53 120.419 102.87 120.519Z" fill="#140E19"/>
<path d="M107.17 112.919C107.39 113.439 108.6 113.439 108.82 112.919C108.27 112.899 107.72 112.939 107.17 112.919Z" fill="#140E19"/>
<path d="M94.28 118.529L92.96 115.559C93.21 117.049 93.55 117.349 94.28 118.529Z" fill="#140E19"/>
<path d="M98.25 121.839C98.35 121.859 98.47 121.819 98.58 121.839L98.41 121.519L98.24 121.839L98.25 121.839Z" fill="#140E19"/>
<path d="M104.86 119.859C104.86 119.859 105.15 119.779 105.04 119.539C104.96 119.359 104.58 119.299 104.53 119.199L104.86 119.859Z" fill="#140E19"/>
<path d="M95.94 117.539L96.27 118.199C95.61 117.429 95.98 117.609 95.94 117.539Z" fill="#140E19"/>
<path d="M91.31 100.689C91.92 101.069 93.64 100.979 94.27 100.499C95.57 99.5193 95.77 92.3493 91.52 93.7893C90.3 94.1993 90.34 100.079 91.31 100.679L91.31 100.689Z" fill="#231B25"/>
<path d="M94.9399 56.09C92.5499 56.8 92.4399 56.73 89.8599 57.12C84.8299 57.87 77.8399 60.24 73.7999 63.36C73.7599 63.39 73.7599 63.9 73.4599 64.16C64.0099 72.01 61.4599 85.62 65.2099 97.06C65.5199 96.7 67.5899 95.59 68.0899 95.48C71.8299 94.71 74.5399 96.91 77.2599 99.04C79.5799 94.81 79.7299 89.84 80.8099 85.24C88.4199 83.16 94.6799 77.69 99.0699 71.29C105.73 77.19 114.58 79.22 122.68 82.37C123.9 83.51 125.27 92.41 125.34 94.42C125.65 93.7 126.25 93.61 126.99 93.76C132.43 74.98 121.41 59.05 102.33 56.47C100.75 56.26 96.2099 55.72 94.9399 56.09Z" fill="#F16018"/>
<path d="M73.4699 63.36C73.9399 62 75.2399 61.25 76.3399 60.45C81.6999 56.55 88.4299 55.11 94.9499 55.76C95.9399 48.85 92.9999 41.83 86.2499 39.18C70.9699 33.17 58.4599 55.05 73.4699 63.36Z" fill="#F16018"/>
<path d="M73.4699 63.36H73.7999C77.8499 60.25 84.8399 57.88 89.8599 57.12C92.4499 56.73 92.5499 56.8 94.9399 56.09V55.76C88.4199 55.1 81.6899 56.55 76.3299 60.45C75.2299 61.25 73.9299 62 73.4599 63.36H73.4699Z" fill="#231B25"/>
</g>
</g>
<defs>
<clipPath id="clip0_1_2651">
<rect width="186.25" height="189" rx="93.125" fill="white"/>
</clipPath>
<clipPath id="clip1_1_2651">
<path d="M39 57.5C39 47.0066 47.5066 38.5 58 38.5H147.25V144.375C147.25 174.267 123.017 198.5 93.125 198.5C63.2326 198.5 39 174.267 39 144.375V57.5Z" fill="white"/>
</clipPath>
</defs>
</svg>
